<!-- Generated by IcoMoon.io -->
<svg version="1.1" xmlns="http://www.w3.org/2000/svg" width="1024" height="1024" viewBox="0 0 1024 1024">
<title></title>
<g id="icomoon-ignore">
</g>
<path fill="#fff" d="M426.822 276.327c7.993 0.081 13.805-3.471 18.005-9.85 7.912-12.111 7.186-25.27 7.186-38.996v-204.022c0-4.118 3.39-7.509 7.509-7.509h105.766c4.118 0 7.509 3.39 7.509 7.509v206.608c0 12.43-0.726 21.556 5.976 32.941 4.68 7.832 11.624 13.321 20.588 16.875 19.215 8.074 34.878 20.023 47.15 35.848 12.676 16.309 21.637 36.734 27.208 60.957v571.378c1.208 28.42-8.235 46.747-28.016 55.305-11.546 4.926-18.731 4.521-30.761 4.521h-180.044c-13.321 0-25.756 0.565-38.915-1.775-33.183-5.894-45.214-23.413-45.858-53.609v-566.212c3.471-57.485 36.734-86.874 76.701-109.964v0zM600.649 443.697h-177.299c-12.837 0-23.333 10.496-23.333 23.333v286.133c0 12.837 10.496 23.333 23.333 23.333h177.299c12.837 0 23.333-10.496 23.333-23.333v-286.133c0-12.837-10.496-23.333-23.333-23.333v0z"></path>
</svg>
